<svg width="90" height="90" viewBox="0 0 90 90" xmlns="http://www.w3.org/2000/svg" shape-rendering="crispEdges">
  <rect x="22" y="8" width="46" height="6" fill="#2e2120"/>
  <rect x="16" y="14" width="58" height="6" fill="#2e2120"/>
  <rect x="10" y="20" width="70" height="6" fill="#2e2120"/>
  <rect x="18" y="10" width="54" height="6" fill="#3f6442"/>
  <rect x="12" y="16" width="66" height="6" fill="#3f6442"/>
  <rect x="8" y="22" width="74" height="8" fill="#3f6442"/>
  <rect x="4" y="30" width="82" height="56" fill="#2e2e2a"/>
  <rect x="8" y="34" width="74" height="48" fill="#b9b9ac"/>
  <rect x="15" y="43" width="16" height="16" fill="#2e2e2a"/>
  <rect x="17" y="45" width="12" height="12" fill="#f1f3e8"/>
  <rect x="59" y="43" width="16" height="16" fill="#2e2e2a"/>
  <rect x="61" y="45" width="12" height="12" fill="#f1f3e8"/>
  <rect x="37" y="58" width="16" height="24" fill="#4b342c"/>
  <rect x="48" y="69" width="3" height="3" fill="#d8b16a"/>
  <rect x="8" y="78" width="74" height="4" fill="#9d9d91"/>
</svg>
